<?xml version="1.0" standalone="no"?>
<!DOCTYPE svg PUBLIC "-//W3C//DTD SVG 20010904//EN"
 "http://www.w3.org/TR/2001/REC-SVG-20010904/DTD/svg10.dtd">
<svg version="1.0" xmlns="http://www.w3.org/2000/svg"
 width="192.000000pt" height="192.000000pt" viewBox="0 0 192.000000 192.000000"
 preserveAspectRatio="xMidYMid meet">
<metadata>
Created by potrace 1.14, written by Peter Selinger 2001-2017
</metadata>
<g transform="translate(0.000000,192.000000) scale(0.100000,-0.100000)"
fill="#000000" stroke="none">
<path d="M258 1702 c-61 -37 -60 -21 -60 -736 0 -358 3 -664 7 -680 10 -38 44
-76 67 -76 10 0 18 -4 18 -8 0 -4 16 -6 36 -4 29 4 35 2 28 -9 -6 -11 -5 -12
7 -3 10 9 190 12 648 12 l633 -1 34 29 c18 16 36 42 40 58 3 16 6 322 6 681 0
582 -1 656 -16 687 -34 71 3 68 -748 68 -616 -1 -675 -2 -700 -18z"/>
</g>
</svg>
